<svg xmlns="http://www.w3.org/2000/svg" version="1.1" xmlns:xlink="http://www.w3.org/1999/xlink" xmlns:svgjs="http://svgjs.dev/svgjs" width="2000" height="2888" viewBox="0 0 2000 2888"><g transform="matrix(1,0,0,1,2.199049028459399,1.1692307692308077)"><svg viewBox="0 0 171 247" data-background-color="#ede1d1" preserveAspectRatio="xMidYMid meet" height="2888" width="2000" xmlns="http://www.w3.org/2000/svg" xmlns:xlink="http://www.w3.org/1999/xlink"><g id="tight-bounds" transform="matrix(1,0,0,1,-0.18801869193328002,-0.09999999999999432)"><svg viewBox="0 0 171.37593922693827 247.2" height="247.2" width="171.37593922693827"><g><svg viewBox="0 0 488.86271999999997 705.156540230382" height="247.2" width="171.37593922693827"><g transform="matrix(1,0,0,1,46.67135999999999,569.138944703821)"><svg viewBox="0 0 395.52 136.01759552656102" height="136.01759552656102" width="395.52"><g id="textblocktransform"><svg viewBox="0 0 395.52 136.01759552656102" height="136.01759552656102" width="395.52" id="textblock"><g><svg viewBox="0 0 395.52 136.01759552656102" height="136.01759552656102" width="395.52"><g transform="matrix(1,0,0,1,0,0)"><svg width="395.52" viewBox="2.75 -36.5 107.29 36.9" height="136.01759552656102" data-palette-color="#ede1d1"><path d="M4.05-24.45L4.05-24.45Q4.05-28.15 6.85-30.38 9.65-32.6 14.2-32.6 18.75-32.6 21.38-30.53 24-28.45 24-24.85L24-24.85Q24-22.8 22.53-20.93 21.05-19.05 18.55-17.65L18.55-17.65Q21.85-16.2 23.7-14.15 25.55-12.1 25.55-8.33 25.55-4.55 22.48-2.13 19.4 0.3 14.15 0.3 8.9 0.3 5.83-1.95 2.75-4.2 2.75-8.45L2.75-8.45Q2.75-13.55 9.1-17.2L9.1-17.2Q4.05-19.7 4.05-24.45ZM7.6-8.7L7.6-8.7Q7.6-5.7 9.38-3.95 11.15-2.2 14.23-2.2 17.3-2.2 19-3.95 20.7-5.7 20.7-8.7L20.7-8.7Q20.7-10.8 19.6-12L19.6-12Q19-12.65 18.5-13.1 18-13.55 16.9-14.08 15.8-14.6 15.23-14.83 14.65-15.05 13.28-15.55 11.9-16.05 11.4-16.25L11.4-16.25Q7.6-13.75 7.6-8.7ZM19.4-24.9L19.4-24.9Q19.4-27.35 17.93-28.75 16.45-30.15 14-30.15 11.55-30.15 10.1-28.73 8.65-27.3 8.65-24.8L8.65-24.8Q8.65-22.15 11.8-20.55L11.8-20.55Q13.25-19.8 15.95-18.75L15.95-18.75Q19.4-21 19.4-24.9ZM35.3 0L32.75 0 32.75-29.9Q32.75-31.6 31.87-32.27 31-32.95 29-33.05L29-33.05 29.15-34.65Q31.2-35 36.3-36.5L36.3-36.5 37.35-35.95 37.35-21.9Q39.5-25.65 43.55-25.65L43.55-25.65Q48.85-25.65 51.3-22.2 53.75-18.75 53.75-12.83 53.75-6.9 50.85-3.25 47.95 0.4 42.5 0.4L42.5 0.4Q39.15 0.4 36.4-2.25L36.4-2.25Q35.65-1.15 35.3 0L35.3 0ZM37.35-11.05L37.35-11.05 37.35-4.6Q40.25-1.9 42.45-1.9 44.65-1.9 45.95-2.83 47.25-3.75 47.85-5.5L47.85-5.5Q48.85-8.4 48.85-11.8 48.85-15.2 48.7-16.8 48.55-18.4 48.05-20.05L48.05-20.05Q47.05-23.35 43.55-23.35L43.55-23.35Q39.6-23.35 38.35-19.4L38.35-19.4Q37.35-16.15 37.35-11.05ZM65.14 0.4L65.14 0.4Q61.95 0.4 60.17-1.23 58.4-2.85 58.4-6.08 58.4-9.3 60.87-11.3 63.34-13.3 68.09-13.65L68.09-13.65 72.34-13.95 72.34-18.35Q72.34-21.05 71.27-22.28 70.2-23.5 67.84-23.5L67.84-23.5Q63.59-23.5 63.59-21.05L63.59-21.05Q63.59-19.7 65.25-19.05L65.25-19.05Q65.25-16.5 62.15-16.5L62.15-16.5Q60.75-16.5 59.9-17.35 59.05-18.2 59.05-19.6L59.05-19.6Q59.05-22.4 61.42-24.03 63.8-25.65 67.97-25.65 72.15-25.65 74.55-23.73 76.95-21.8 76.95-18.35L76.95-18.35 76.95-3.3Q78.2-2.35 80.7-1.85L80.7-1.85 80.5 0 73.05 0 72.5-2.4Q69.55 0.4 65.14 0.4ZM63.15-6.25L63.15-6.25Q63.15-1.85 66.55-1.85L66.55-1.85Q69.25-1.85 72.34-4.95L72.34-4.95 72.34-11.75 68.3-11.4Q65.9-11.2 64.52-9.8 63.15-8.4 63.15-6.25ZM86.59-3.3L86.59-29.5Q86.59-31.5 85.77-32.23 84.94-32.95 82.84-33.05L82.84-33.05 82.99-34.65Q85.04-35 90.14-36.5L90.14-36.5 91.19-35.95 91.19-3.3Q92.54-2.3 94.94-1.85L94.94-1.85 94.74 0 82.84 0 83.04-1.95Q85.19-2.3 86.59-3.3L86.59-3.3ZM101.69-3.3L101.69-29.5Q101.69-31.5 100.87-32.23 100.04-32.95 97.94-33.05L97.94-33.05 98.09-34.65Q100.14-35 105.24-36.5L105.24-36.5 106.29-35.95 106.29-3.3Q107.64-2.3 110.04-1.85L110.04-1.85 109.84 0 97.94 0 98.14-1.95Q100.29-2.3 101.69-3.3L101.69-3.3Z" opacity="1" transform="matrix(1,0,0,1,0,0)" fill="#ede1d1" class="wordmark-text-0" data-fill-palette-color="primary" id="text-0"></path></svg></g></svg></g></svg></g></svg></g><g><svg viewBox="0 0 488.86271999999997 488.86271999999997" height="488.86271999999997" width="488.86271999999997"><g><svg viewBox="0 0 488.86271999999997 488.86271999999997" height="488.86271999999997" width="488.86271999999997"><g transform="matrix(1,0,0,1,129.20531187289984,132.08596307607735)"><svg viewBox="0 0 230.45209625420028 224.69079384784527" height="224.69079384784527" width="230.45209625420028"><g><svg xmlns="http://www.w3.org/2000/svg" xmlns:xlink="http://www.w3.org/1999/xlink" version="1.1" x="0" y="0" viewBox="10 11 80 78" style="enable-background:new 0 0 100 100;" xml:space="preserve" height="224.69079384784527" width="230.45209625420028" class="icon-dxe-0" data-fill-palette-color="accent" id="dxe-0"><g fill="#ff4a3f" data-fill-palette-color="accent"><path d="M81 11C76 11 72 15 72 20S76 29 81 29 90 25 90 20 86 11 81 11M81 27C77.1 27 74 23.9 74 20S77.1 13 81 13 88 16.1 88 20 84.9 27 81 27" fill="#ff4a3f" data-fill-palette-color="accent"></path><path d="M81 41C78.4 41 76.1 42.1 74.4 43.9L57.3 25.3C58.4 23.8 59 22 59 20 59 15 55 11 50 11S41 15 41 20 45 29 50 29C52.3 29 54.3 28.1 55.9 26.8L73.2 45.5C72.5 46.8 72 48.4 72 50 72 55 76 59 81 59S90 55 90 50 86 41 81 41M50 27C46.1 27 43 23.9 43 20S46.1 13 50 13 57 16.1 57 20 53.9 27 50 27M81 57C77.1 57 74 53.9 74 50S77.1 43 81 43 88 46.1 88 50 84.9 57 81 57" fill="#ff4a3f" data-fill-palette-color="accent"></path><path d="M50 59C55 59 59 55 59 50S55 41 50 41 41 45 41 50 45 59 50 59M50 43C53.9 43 57 46.1 57 50S53.9 57 50 57 43 53.9 43 50 46.1 43 50 43" fill="#ff4a3f" data-fill-palette-color="accent"></path><path d="M19 89C24 89 28 85 28 80S24 71 19 71 10 75 10 80 14 89 19 89M19 73C22.9 73 26 76.1 26 80S22.9 87 19 87 12 83.9 12 80 15.1 73 19 73" fill="#ff4a3f" data-fill-palette-color="accent"></path><path d="M81 71C76.4 71 72.6 74.5 72.1 79H58.9C58.4 74.5 54.6 71 50 71 46.8 71 44 72.7 42.4 75.2L24.4 57.2C26.6 55.6 28 52.9 28 50 28 45.4 24.5 41.6 20 41.1V28.9C24.5 28.4 28 24.6 28 20 28 15 24 11 19 11S10 15 10 20C10 24.6 13.5 28.4 18 28.9V41C13.5 41.5 10 45.3 10 49.9 10 54.9 14 58.9 19 58.9 20.3 58.9 21.5 58.6 22.6 58.2L41.5 77.1C41.2 78 41 79 41 80 41 85 45 89 50 89 54.6 89 58.4 85.5 58.9 81H72C72.5 85.5 76.3 89 80.9 89 85.9 89 89.9 85 89.9 80S86 71 81 71M12 20C12 16.1 15.1 13 19 13S26 16.1 26 20 22.9 27 19 27 12 23.9 12 20M12 50C12 46.1 15.1 43 19 43S26 46.1 26 50 22.9 57 19 57 12 53.9 12 50M50 87C46.1 87 43 83.9 43 80S46.1 73 50 73 57 76.1 57 80 53.9 87 50 87M81 87C77.1 87 74 83.9 74 80S77.1 73 81 73 88 76.1 88 80 84.9 87 81 87" fill="#ff4a3f" data-fill-palette-color="accent"></path></g></svg></g></svg></g><g id="text-0"><path d="M16.686 169.668v0c-5.395-2.13-8.907-5.879-10.536-11.246-1.631-5.361-1.137-11.358 1.483-17.993 2.619-6.634 6.196-11.267 10.729-13.898 4.542-2.634 9.435-2.916 14.68-0.845v0c2.992 1.181 5.427 3.387 7.306 6.618 1.887 3.227 3.131 7.067 3.73 11.522v0c4.016-3.978 8.052-6.725 12.109-8.242 4.051-1.519 8.83-1.191 14.338 0.984 5.502 2.172 9.136 6.197 10.903 12.075 1.764 5.884 1.135 12.653-1.887 20.307-3.022 7.655-7.058 13.075-12.107 16.262-5.049 3.186-10.672 3.556-16.868 1.11v0c-7.442-2.938-11.995-10.086-13.661-21.444v0c-6.551 5.928-13.291 7.525-20.219 4.79zM54.197 175.504v0c4.375 1.727 8.351 1.8 11.927 0.216 3.574-1.577 6.247-4.609 8.019-9.096 1.769-4.481 1.867-8.465 0.292-11.952-1.575-3.487-4.55-6.094-8.925-7.821v0c-3.061-1.208-5.78-1.356-8.159-0.444v0c-1.297 0.501-2.418 0.984-3.362 1.451-0.946 0.473-2.118 1.36-3.514 2.66-1.396 1.301-2.426 2.305-3.088 3.013-0.657 0.71-1.745 1.927-3.264 3.649-1.523 1.714-2.572 2.877-3.146 3.489v0c1.453 6.984 5.86 11.928 13.22 14.835zM28.955 135.706v0c-3.568-1.409-6.795-1.442-9.683-0.101-2.897 1.345-5.051 3.804-6.462 7.378-1.409 3.568-1.492 6.819-0.248 9.755 1.243 2.936 3.688 5.124 7.337 6.565v0c3.862 1.525 7.867 0.451 12.015-3.221v0c1.931-1.683 4.437-4.191 7.518-7.525v0c-1.295-6.321-4.788-10.604-10.477-12.851z" fill="#ff4a3f" data-fill-palette-color="accent"></path><path d="M142.325 93.032l-5.214 2.961-34.721-61.129c-1.316-2.317-2.833-3.599-4.552-3.845-1.715-0.241-3.975 0.346-6.778 1.76v0l-1.552-3.448c2.528-2.063 6.685-6.092 12.473-12.088v0l2.78-0.093 16.316 28.726c0.03-6.773 2.807-11.728 8.33-14.866v0c7.22-4.101 13.835-4.751 19.845-1.95 6.013 2.807 11.313 8.247 15.899 16.322 4.59 8.08 6.319 15.731 5.189 22.95-1.125 7.217-5.402 12.935-12.833 17.156v0c-4.564 2.592-9.746 3.148-15.548 1.669v0c-0.173 2.079-0.051 4.038 0.366 5.875zM133.679 68.063v0l7.488 13.183c6.046 1.434 10.567 1.3 13.562-0.402 3.002-1.705 5.032-3.69 6.09-5.955 1.049-2.268 1.307-4.825 0.774-7.671v0c-0.883-4.73-2.641-9.412-5.273-14.046-2.632-4.634-4.67-7.984-6.115-10.05-1.441-2.06-3.141-4.024-5.099-5.891v0c-3.916-3.719-8.258-4.225-13.027-1.516v0c-5.389 3.061-7.406 7.766-6.051 14.116v0c1.153 5.204 3.703 11.281 7.651 18.232z" fill="#ff4a3f" data-fill-palette-color="accent"></path><path d="M257.901 65.431v0c-4.972-0.638-8.678-2.396-11.118-5.274-2.432-2.883-3.326-6.831-2.682-11.843 0.643-5.012 3.087-8.827 7.33-11.444 4.25-2.616 10.101-3.724 17.553-3.324v0l10.002 0.572 1.317-10.262c0.539-4.198 0.096-7.355-1.328-9.472-1.424-2.116-3.965-3.409-7.623-3.878v0c-6.608-0.848-10.155 0.63-10.644 4.434v0c-0.27 2.102 0.812 3.822 3.245 5.159v0c-0.509 3.965-3.173 5.638-7.991 5.019v0c-2.176-0.279-3.84-1.164-4.992-2.656-1.152-1.491-1.588-3.325-1.309-5.5v0c0.559-4.352 2.846-7.555 6.862-9.611 4.021-2.048 9.276-2.656 15.763-1.824 6.494 0.834 11.415 2.985 14.762 6.454 3.346 3.476 4.675 7.893 3.987 13.253v0l-4.505 35.1c1.752 1.731 4.524 3.233 8.316 4.507v0l-1.025 4.254-17.38-2.23-0.563-5.761c-5.144 3.763-11.136 5.206-17.977 4.327zM255.226 49.325v0c-0.878 6.841 1.326 10.601 6.612 11.279v0c4.198 0.539 9.016-1.292 14.453-5.492v0l2.036-15.858-9.545-0.401c-3.771-0.165-6.864 0.703-9.28 2.605-2.422 1.901-3.847 4.523-4.276 7.867z" fill="#ff4a3f" data-fill-palette-color="accent"></path><path d="M358.095 97.584l39.878-46.951c2.03-2.39 2.921-4.437 2.672-6.14-0.249-1.703-1.579-3.681-3.992-5.933v0l2.707-2.641c2.804 1.667 8.015 4.19 15.633 7.57v0l1.048 2.586-49.699 58.514c0.595 2.563 2.098 5.331 4.507 8.305v0l-3.17 3.015-21.333-18.12 3.328-3.185c2.927 1.762 5.734 2.755 8.421 2.98z" fill="#ff4a3f" data-fill-palette-color="accent"></path><path d="M412.657 174.645l57.88-21.086c2.946-1.073 4.733-2.412 5.359-4.014 0.626-1.603 0.448-3.98-0.535-7.132v0l3.658-0.957c1.613 2.836 4.894 7.606 9.844 14.312v0l-0.368 2.765-72.134 26.279c-0.75 2.522-0.813 5.671-0.189 9.447v0l-4.247 1.053-9.58-26.299 4.468-1.123c1.672 2.979 3.621 5.23 5.844 6.755z" fill="#ff4a3f" data-fill-palette-color="accent"></path><path d="M70.631 295.583v0c5.803-2.361 11.339-2.056 16.609 0.915 5.278 2.974 9.368 8.026 12.269 15.157 2.904 7.137 3.565 13.424 1.985 18.861-1.577 5.444-5.19 9.314-10.836 11.612v0c-3.21 1.306-6.756 1.401-10.639 0.286-3.883-1.115-7.719-3.187-11.508-6.216v0c-0.17 6.099-1.271 11.251-3.302 15.455-2.034 4.213-6.012 7.524-11.933 9.934-5.915 2.407-11.755 1.971-17.52-1.307-5.765-3.277-10.321-9.03-13.668-17.257-3.35-8.234-4.242-15.48-2.678-21.74 1.568-6.253 5.683-10.735 12.346-13.446v0c7.997-3.254 16.881-1.067 26.653 6.558v0c0.7-9.511 4.774-15.782 12.222-18.812zM36.986 319.003v0c-4.706 1.915-7.865 4.82-9.476 8.716-1.615 3.904-1.441 8.269 0.521 13.093 1.96 4.818 4.857 8.002 8.692 9.551 3.825 1.546 8.091 1.361 12.797-0.553v0c3.291-1.339 5.528-3.251 6.71-5.738v0c0.633-1.355 1.145-2.569 1.536-3.644 0.385-1.072 0.639-2.635 0.761-4.69 0.12-2.061 0.171-3.615 0.153-4.66-0.012-1.048-0.063-2.807-0.153-5.278-0.092-2.476-0.142-4.17-0.15-5.082v0c-6.345-4.364-13.475-4.935-21.391-1.715zM86.375 331.252v0c3.839-1.562 6.389-3.947 7.648-7.155 1.253-3.205 1.099-6.727-0.464-10.567-1.562-3.839-3.925-6.442-7.088-7.806-3.157-1.367-6.696-1.253-10.616 0.342v0c-4.157 1.691-6.483 5.518-6.978 11.48v0c-0.255 2.748-0.343 6.576-0.264 11.484v0c5.726 3.969 11.647 4.709 17.762 2.222z" fill="#ff4a3f" data-fill-palette-color="accent"></path><path d="M113.403 447.523l-5.671-3.134 36.731-66.448c1.393-2.521 1.717-4.637 0.971-6.348-0.742-1.717-2.554-3.468-5.434-5.253v0l2.303-3.375c3.325 1.162 9.38 2.721 18.163 4.677v0l1.658 2.508-17.261 31.228c6.259-3.798 12.386-4.04 18.381-0.727v0c7.856 4.343 12.185 10.073 12.987 17.19 0.802 7.117-1.224 15.066-6.077 23.847-4.851 8.775-10.917 14.679-18.199 17.712-7.291 3.036-14.973 2.322-23.047-2.141v0c-4.959-2.741-8.39-7.202-10.294-13.383v0c-2.015 1.016-3.752 2.232-5.211 3.647zM131.537 425.485v0l-7.926 14.337c2.083 6.372 4.756 10.46 8.018 12.264 3.257 1.8 6.227 2.547 8.912 2.238 2.681-0.302 5.184-1.505 7.509-3.611v0c3.857-3.473 7.179-7.73 9.966-12.771 2.783-5.035 4.717-8.798 5.802-11.289 1.088-2.497 1.937-5.173 2.546-8.027v0c1.224-5.705-0.758-9.992-5.947-12.86v0c-5.848-3.233-11.317-2.435-16.409 2.394v0c-4.138 3.994-8.295 9.769-12.471 17.325z" fill="#ff4a3f" data-fill-palette-color="accent"></path><path d="M268.09 483.425v0c-5.365 0.744-9.724-0.04-13.074-2.354-3.358-2.313-5.411-6.172-6.162-11.577-0.751-5.412 0.717-10.083 4.405-14.012 3.681-3.928 9.463-6.737 17.346-8.429v0l10.584-2.232-1.536-11.068c-0.629-4.532-1.985-7.7-4.07-9.503-2.084-1.803-5.1-2.431-9.045-1.884v0c-7.125 0.989-10.403 3.536-9.833 7.641v0c0.314 2.266 1.93 3.754 4.848 4.464v0c0.593 4.272-1.71 6.769-6.909 7.49v0c-2.346 0.326-4.331-0.126-5.956-1.354-1.618-1.229-2.589-3.017-2.915-5.363v0c-0.651-4.692 0.824-8.678 4.425-11.956 3.608-3.279 8.911-5.404 15.909-6.375 6.998-0.971 12.735-0.119 17.209 2.554 4.473 2.667 7.111 6.894 7.915 12.68v0l5.251 37.851c2.314 1.303 5.625 2.083 9.934 2.342v0l0.146 4.718-18.736 2.599-2.228-5.846c-4.294 5.385-10.13 8.59-17.508 9.614zM260.741 467.396v0c1.024 7.378 4.385 10.672 10.083 9.882v0c4.532-0.629 9.034-3.903 13.505-9.822v0l-2.373-17.107-10.056 2.292c-3.98 0.892-6.959 2.674-8.939 5.347-1.981 2.666-2.721 5.802-2.22 9.408z" fill="#ff4a3f" data-fill-palette-color="accent"></path><path d="M388.14 422.849l-43.237-50.561c-2.2-2.572-4.229-3.874-6.088-3.904-1.86-0.021-4.194 1.059-7.004 3.24v0l-2.352-3.341c2.254-2.707 5.837-7.83 10.75-15.368v0l2.931-0.674 53.884 63.011c2.831-0.199 6.041-1.328 9.628-3.386v0l2.667 3.895-22.968 19.641-2.837-4.095c2.382-2.816 3.924-5.636 4.626-8.458z" fill="#ff4a3f" data-fill-palette-color="accent"></path><path d="M454.835 328.925l-62.319-23.284c-3.171-1.185-5.576-1.34-7.217-0.467-1.637 0.882-3.156 2.958-4.558 6.228v0l-3.676-1.783c0.661-3.46 1.314-9.677 1.959-18.653v0l2.237-2.008 77.665 29.018c2.381-1.546 4.641-4.088 6.783-7.626v0l4.22 2.115-10.578 28.309-4.466-2.208c0.719-3.617 0.703-6.831-0.05-9.641z" fill="#ff4a3f" data-fill-palette-color="accent"></path><path d="M0 243.03c0-18.107 14.679-32.785 32.785-32.785 18.107 0 32.785 14.679 32.786 32.785 0 18.107-14.679 32.785-32.786 32.785-18.107 0-32.785-14.679-32.785-32.785z" fill="#ff4a3f" data-fill-palette-color="accent"></path><path d="M414.034 243.03c0-18.107 14.679-32.785 32.785-32.785 18.107 0 32.785 14.679 32.785 32.785 0 18.107-14.679 32.785-32.785 32.785-18.107 0-32.785-14.679-32.785-32.785z" fill="#ff4a3f" data-fill-palette-color="accent"></path></g><g id="text-1"></g></svg></g></svg></g><g></g></svg></g><defs></defs></svg><rect width="171.37593922693827" height="247.2" fill="none" stroke="none" visibility="hidden"></rect></g></svg></g></svg>